<?xml version="1.0" encoding="iso-8859-1"?>
<!-- Generator: Adobe Illustrator 16.0.0, SVG Export Plug-In . SVG Version: 6.00 Build 0)  -->
<!DOCTYPE svg PUBLIC "-//W3C//DTD SVG 1.1//EN" "http://www.w3.org/Graphics/SVG/1.1/DTD/svg11.dtd">
<svg version="1.1" id="Layer_1" xmlns="http://www.w3.org/2000/svg" xmlns:xlink="http://www.w3.org/1999/xlink" x="0px" y="0px"
	 width="1249.049px" height="764px" viewBox="0 0 1249.049 764" style="enable-background:new 0 0 1249.049 764;"
	 xml:space="preserve">
<rect x="0" style="fill:#FF8787;" width="1249.049" height="648"/>
<path style="fill:#0B24FB;" d="M751.854,147.706c72.761-231.694,343.59-113.865,497.194-142.578v760.427H0L-0.88,350.5
	C302.285,403.968,679.094,379.398,751.854,147.706z"/>
<path style="fill:#EEBECE;" d="M898.74,324.833c-2.693-286.956,288.329-197.125,350.308-306.918V764H421.785
	C84.024,68.5,901.434,611.788,898.74,324.833z"/>
<path style="fill:#FF8787;" d="M1004.314,289.246c76.504-42.142,276.773-10.104,356.379,98.635l-115.535,377.674H754.968
	C610.025,747.5,529.025,586.5,612.025,539.5c82.171-45.972,280.367,26.847,351.205-33.171
	C1034.065,446.313,927.81,331.385,1004.314,289.246z"/>
<path style="fill:#060807;" d="M225.5,331.953C226.56,548.57,39.303,480.175-0.88,562.928L0.883-0.263l532.895,1.668
	C732.125,407.001,224.443,115.336,225.5,331.953z"/>
</svg>
